<svg width="14" height="14" viewBox="0 0 14 14" fill="none" xmlns="http://www.w3.org/2000/svg">
<path d="M2.99984 7.66663C2.63317 7.66663 2.33317 7.96663 2.33317 8.33329C2.33317 8.69996 2.63317 8.99996 2.99984 8.99996C3.3665 8.99996 3.6665 8.69996 3.6665 8.33329C3.6665 7.96663 3.3665 7.66663 2.99984 7.66663ZM2.99984 10.3333C2.63317 10.3333 2.33317 10.6333 2.33317 11C2.33317 11.3666 2.63317 11.6666 2.99984 11.6666C3.3665 11.6666 3.6665 11.3666 3.6665 11C3.6665 10.6333 3.3665 10.3333 2.99984 10.3333ZM2.99984 4.99996C2.63317 4.99996 2.33317 5.29996 2.33317 5.66663C2.33317 6.03329 2.63317 6.33329 2.99984 6.33329C3.3665 6.33329 3.6665 6.03329 3.6665 5.66663C3.6665 5.29996 3.3665 4.99996 2.99984 4.99996ZM0.999837 5.33329C0.813171 5.33329 0.666504 5.47996 0.666504 5.66663C0.666504 5.85329 0.813171 5.99996 0.999837 5.99996C1.1865 5.99996 1.33317 5.85329 1.33317 5.66663C1.33317 5.47996 1.1865 5.33329 0.999837 5.33329ZM2.99984 2.33329C2.63317 2.33329 2.33317 2.63329 2.33317 2.99996C2.33317 3.36663 2.63317 3.66663 2.99984 3.66663C3.3665 3.66663 3.6665 3.36663 3.6665 2.99996C3.6665 2.63329 3.3665 2.33329 2.99984 2.33329ZM12.9998 5.99996C13.1865 5.99996 13.3332 5.85329 13.3332 5.66663C13.3332 5.47996 13.1865 5.33329 12.9998 5.33329C12.8132 5.33329 12.6665 5.47996 12.6665 5.66663C12.6665 5.85329 12.8132 5.99996 12.9998 5.99996ZM8.33317 3.66663C8.69984 3.66663 8.99984 3.36663 8.99984 2.99996C8.99984 2.63329 8.69984 2.33329 8.33317 2.33329C7.9665 2.33329 7.6665 2.63329 7.6665 2.99996C7.6665 3.36663 7.9665 3.66663 8.33317 3.66663ZM8.33317 1.33329C8.51984 1.33329 8.6665 1.18663 8.6665 0.999959C8.6665 0.813293 8.51984 0.666626 8.33317 0.666626C8.1465 0.666626 7.99984 0.813293 7.99984 0.999959C7.99984 1.18663 8.1465 1.33329 8.33317 1.33329ZM0.999837 7.99996C0.813171 7.99996 0.666504 8.14663 0.666504 8.33329C0.666504 8.51996 0.813171 8.66663 0.999837 8.66663C1.1865 8.66663 1.33317 8.51996 1.33317 8.33329C1.33317 8.14663 1.1865 7.99996 0.999837 7.99996ZM5.6665 12.6666C5.47984 12.6666 5.33317 12.8133 5.33317 13C5.33317 13.1866 5.47984 13.3333 5.6665 13.3333C5.85317 13.3333 5.99984 13.1866 5.99984 13C5.99984 12.8133 5.85317 12.6666 5.6665 12.6666ZM5.6665 1.33329C5.85317 1.33329 5.99984 1.18663 5.99984 0.999959C5.99984 0.813293 5.85317 0.666626 5.6665 0.666626C5.47984 0.666626 5.33317 0.813293 5.33317 0.999959C5.33317 1.18663 5.47984 1.33329 5.6665 1.33329ZM5.6665 3.66663C6.03317 3.66663 6.33317 3.36663 6.33317 2.99996C6.33317 2.63329 6.03317 2.33329 5.6665 2.33329C5.29984 2.33329 4.99984 2.63329 4.99984 2.99996C4.99984 3.36663 5.29984 3.66663 5.6665 3.66663ZM5.6665 7.33329C5.11317 7.33329 4.6665 7.77996 4.6665 8.33329C4.6665 8.88663 5.11317 9.33329 5.6665 9.33329C6.21984 9.33329 6.6665 8.88663 6.6665 8.33329C6.6665 7.77996 6.21984 7.33329 5.6665 7.33329ZM10.9998 7.66663C10.6332 7.66663 10.3332 7.96663 10.3332 8.33329C10.3332 8.69996 10.6332 8.99996 10.9998 8.99996C11.3665 8.99996 11.6665 8.69996 11.6665 8.33329C11.6665 7.96663 11.3665 7.66663 10.9998 7.66663ZM10.9998 10.3333C10.6332 10.3333 10.3332 10.6333 10.3332 11C10.3332 11.3666 10.6332 11.6666 10.9998 11.6666C11.3665 11.6666 11.6665 11.3666 11.6665 11C11.6665 10.6333 11.3665 10.3333 10.9998 10.3333ZM10.9998 4.99996C10.6332 4.99996 10.3332 5.29996 10.3332 5.66663C10.3332 6.03329 10.6332 6.33329 10.9998 6.33329C11.3665 6.33329 11.6665 6.03329 11.6665 5.66663C11.6665 5.29996 11.3665 4.99996 10.9998 4.99996ZM10.9998 2.33329C10.6332 2.33329 10.3332 2.63329 10.3332 2.99996C10.3332 3.36663 10.6332 3.66663 10.9998 3.66663C11.3665 3.66663 11.6665 3.36663 11.6665 2.99996C11.6665 2.63329 11.3665 2.33329 10.9998 2.33329ZM12.9998 7.99996C12.8132 7.99996 12.6665 8.14663 12.6665 8.33329C12.6665 8.51996 12.8132 8.66663 12.9998 8.66663C13.1865 8.66663 13.3332 8.51996 13.3332 8.33329C13.3332 8.14663 13.1865 7.99996 12.9998 7.99996ZM8.33317 10.3333C7.9665 10.3333 7.6665 10.6333 7.6665 11C7.6665 11.3666 7.9665 11.6666 8.33317 11.6666C8.69984 11.6666 8.99984 11.3666 8.99984 11C8.99984 10.6333 8.69984 10.3333 8.33317 10.3333ZM8.33317 12.6666C8.1465 12.6666 7.99984 12.8133 7.99984 13C7.99984 13.1866 8.1465 13.3333 8.33317 13.3333C8.51984 13.3333 8.6665 13.1866 8.6665 13C8.6665 12.8133 8.51984 12.6666 8.33317 12.6666ZM5.6665 4.66663C5.11317 4.66663 4.6665 5.11329 4.6665 5.66663C4.6665 6.21996 5.11317 6.66663 5.6665 6.66663C6.21984 6.66663 6.6665 6.21996 6.6665 5.66663C6.6665 5.11329 6.21984 4.66663 5.6665 4.66663ZM5.6665 10.3333C5.29984 10.3333 4.99984 10.6333 4.99984 11C4.99984 11.3666 5.29984 11.6666 5.6665 11.6666C6.03317 11.6666 6.33317 11.3666 6.33317 11C6.33317 10.6333 6.03317 10.3333 5.6665 10.3333ZM8.33317 7.33329C7.77984 7.33329 7.33317 7.77996 7.33317 8.33329C7.33317 8.88663 7.77984 9.33329 8.33317 9.33329C8.8865 9.33329 9.33317 8.88663 9.33317 8.33329C9.33317 7.77996 8.8865 7.33329 8.33317 7.33329ZM8.33317 4.66663C7.77984 4.66663 7.33317 5.11329 7.33317 5.66663C7.33317 6.21996 7.77984 6.66663 8.33317 6.66663C8.8865 6.66663 9.33317 6.21996 9.33317 5.66663C9.33317 5.11329 8.8865 4.66663 8.33317 4.66663Z" fill="black" />
</svg>
