<svg width="120" height="120" viewBox="0 0 120 120" fill="none" xmlns="http://www.w3.org/2000/svg">
<path d="M99.825 93.5361L116.25 113.991L91.3181 105.975L99.825 93.5361Z" fill="#3F3438"/>
<path d="M95.6813 57.724L95.2275 62.5315L98.7338 59.1603L97.8188 63.919L101.663 60.9021L100.2 65.5221L104.383 62.989L102.338 67.3859L106.832 65.434L104.175 69.5065L108.919 68.2315L105.656 71.8502L110.531 71.3065L106.763 74.3909L111.66 74.5727L107.479 77.1002L112.299 77.9402L107.816 79.9015L112.498 81.3377L107.798 82.8752L112.279 84.9752L107.441 85.9615L111.623 88.5565L106.689 88.969L110.535 92.044L105.585 91.894L109.054 95.3759L104.16 94.669L107.216 98.5127L102.422 97.294L105.041 101.419L100.41 99.7315L102.606 104.1L98.16 101.963L99.9225 106.525L95.685 103.988L97.0219 108.686L93.0431 105.788L93.9413 110.582L90.2475 107.344L90.735 112.208L87.3075 108.681L87.3863 113.55L84.2663 109.763L83.9513 114.638L81.135 110.618L80.4338 115.444L77.9644 111.225L76.875 115.982L74.7375 111.581L73.2788 116.25L71.4788 111.694L69.6788 116.25L68.235 111.581L66.0975 115.984L65.0138 111.225L62.535 115.444L61.8281 110.618L59.0288 114.638L58.71 109.763L55.5881 113.569L55.665 108.679L52.245 112.208L52.7288 107.344L49.0163 110.582L49.9219 105.788L45.9431 108.683L47.2725 103.988L43.0481 106.521L44.8088 101.963L40.3594 104.1L42.555 99.7315L37.9181 101.419L40.5431 97.2865L35.76 98.5127L95.6813 57.724Z" fill="#FFCE31"/>
<path d="M20.4301 74.3441L88.6875 52.1741L87.7744 56.9234L91.6144 53.9141L90.1688 58.5378L94.3313 56.0009L92.3063 60.3941L96.7913 58.4441L94.1438 62.5128L98.8669 61.2359L95.6194 64.8622L100.491 64.3128L96.7219 67.4028L101.61 67.5941L97.4344 70.1066L102.248 70.9541L97.7663 72.9153L102.458 74.3441L97.7663 75.8966L102.229 77.9853L97.3932 78.9753L101.573 81.5797L96.6413 81.9941L100.494 85.0691L95.55 84.9003L99.015 88.3878L94.1101 87.6884L97.1719 91.5247L92.385 90.3003L95.0063 94.4441L90.3788 92.7378L92.5726 97.1141L88.1175 94.9766L89.8782 99.5441L85.6538 96.9959L86.985 101.7L83.01 98.7959L83.9082 103.594L80.2013 100.369L80.6851 105.225L77.2726 101.7L77.3475 106.572L74.2276 102.784L73.9163 107.648L71.1057 103.635L70.3969 108.465L67.935 104.235L66.8382 108.998L64.7007 104.597L63.2457 109.26L61.4476 104.719L59.6494 109.26L58.2038 104.597L56.0569 108.998L54.9788 104.235L52.4982 108.465L51.7894 103.635L48.9976 107.667L48.6657 102.786L45.5494 106.579L45.6226 101.704L42.2026 105.229L42.6938 100.373L38.9794 103.598L39.8869 98.7997L35.9101 101.704L37.2319 96.9978L33.0076 99.5291L34.7682 94.9747L30.3226 97.1122L32.5163 92.7416L27.8757 94.4478L30.5063 90.3041L25.7138 91.5228L28.7701 87.6847L23.8726 88.3916L27.3376 84.9041L22.3932 85.0541L26.2388 81.9903L21.3113 81.5759L25.4963 78.9791L20.6476 77.9909L25.1213 75.9003L20.4301 74.3441Z" fill="#3F3438"/>
<path d="M112.594 8.12203C105.838 -0.339843 93.3825 3.84703 84.7706 17.4858C76.155 31.1208 69.8606 54.922 69.8606 54.922C69.8606 54.922 98.9906 59.7052 107.604 46.0814C116.218 32.4539 119.351 16.5858 112.599 8.12203" fill="#C9E4F2"/>
<path d="M7.34433 16.6659C0.704951 24.8015 3.79683 39.9065 12.2568 52.8365C20.7281 65.7628 49.3593 60.914 49.3593 60.914C49.3593 60.914 43.1624 38.264 34.7006 25.3397C26.2312 12.4059 13.9818 8.52653 7.34433 16.6659Z" fill="#C9E4F2"/>
<path d="M63.0187 47.306L64.8468 43.9216L65.4825 47.7091L67.5187 44.4316L67.9125 48.251L70.1493 45.1104L70.2693 48.9541L72.7406 45.9823L72.5512 49.8148L75.2625 47.0604L74.7243 50.8666L77.7 48.3916L76.7475 52.1135L79.9818 49.9816L78.5925 53.5648L82.0725 51.8529L80.2162 55.2241L83.9025 53.996L81.5887 57.0785L85.4118 56.3791L82.6687 59.0998L86.55 58.9385L83.4712 61.2654L87.3431 61.6066L83.9812 63.5398L87.7856 64.3291L84.225 65.8854L87.9243 67.0723L84.2193 68.3735L87.7687 70.0291L83.9475 70.9516L87.3 72.9766L83.4 73.4979L86.5312 75.8473L82.5937 75.9579L85.4512 78.6241L81.5325 78.3373L84.1012 81.2791L80.2293 80.5929L82.485 83.771L78.6975 82.7229L80.6175 86.0979L76.9612 84.6916L78.5587 88.2354L75.0487 86.4916L76.2993 90.1666L72.9656 88.1116L73.8675 91.8991L70.7418 89.5423L71.2987 93.3823L68.3925 90.7554L68.5875 94.6366L65.9362 91.766L65.7862 95.6491L63.405 92.5554L62.9025 96.3991L60.81 93.116L59.9625 96.9035L58.1737 93.4535L56.9887 97.1529L55.5018 93.5641L54.0168 97.1529L52.8487 93.4535L51.0487 96.9035L50.1993 93.116L48.1087 96.3991L47.6043 92.5554L45.2362 95.6491L45.0675 91.7641L42.4218 94.6366L42.6112 90.7554L39.7237 93.3804L40.2656 89.5404L37.1381 91.8991L38.0381 88.1116L34.7062 90.1723L35.955 86.4973L32.4468 88.241L34.0425 84.6973L30.3768 86.096L32.31 82.7285L28.5225 83.771L63.0187 47.306Z" fill="#FFCE31"/>
<path d="M17.3193 62.1375L20.6437 61.0162L17.43 59.6156L20.85 58.8056L17.7881 57.1031L21.2643 56.6437L18.4237 54.6187L21.9318 54.5812L19.3687 52.2131L22.8506 52.6125L20.625 49.9387L24.0225 50.7937L22.1812 47.8481L25.4325 49.1437L23.9962 45.9918L27.0543 47.6906L26.025 44.3794L28.8581 46.425L28.2187 43.0237L30.81 45.3562L30.5118 41.9044L32.8706 44.4675L32.8781 41.0062L35.0212 43.7475L35.3043 40.2975L37.2337 43.2L37.7625 39.7687L39.4875 42.7762L40.23 39.3937L41.7881 42.4912L42.7143 39.15L44.1093 42.3281L45.1875 39.0375L46.4456 42.2756L47.6887 39.0375L48.7875 42.3281L50.1731 39.15L51.0937 42.4912L52.65 39.3937L53.3925 42.7744L55.1287 39.7687L55.665 43.2L57.6 40.3012L57.8887 43.7512L60.0375 41.01V44.475L62.4187 41.9156L62.1187 45.375L64.7156 43.0406L64.0687 46.44L66.9 44.4019L65.8687 47.7075L68.9231 46.0144L67.4831 49.1625L70.7362 47.8725L68.8856 50.8125L72.2868 49.9594L70.05 52.6312L73.5375 52.23L70.9706 54.5812L74.4768 54.6375L71.625 56.6625L75.1125 57.105L72.0543 58.8075L75.4687 59.6194L72.255 61.0181L75.5812 62.1375L72.2512 63.3694L75.45 64.8881L72.0187 65.8125L75.0562 67.6125L71.5687 68.2125L74.4243 70.2956L70.8843 70.575L73.5375 72.9056L69.975 72.8531L72.3918 75.4312L68.8631 75.0375L71.0193 77.8275L67.5375 77.1187L69.4312 80.0887L66.0375 79.0687L67.6125 82.1944L64.3312 80.85L65.6231 84.12L62.4937 82.4812L63.4518 85.8544L60.4875 83.9269L61.1175 87.375L58.35 85.1812L58.65 88.6687L56.115 86.2125L56.0587 89.715L53.7806 87.0375L53.3756 90.5062L51.375 87.6187L50.625 91.0462L48.9187 87.9731L47.8462 91.3106L46.4456 88.0912L45.0562 91.3106L43.9725 87.9731L42.2643 91.0462L41.5125 87.6187L39.5062 90.5062L39.1181 87.0375L36.8362 89.715L36.7818 86.2106L34.2468 88.6687L34.5375 85.1625L31.7737 87.3712L32.4056 83.925L29.4393 85.8487L30.4068 82.4775L27.2662 84.1162L28.5543 80.85L25.2712 82.1887L26.8631 79.05L23.4656 80.0831L25.3593 77.1187L21.8812 77.82L24.0375 75.0375L20.5087 75.4312L22.9218 72.8512L19.3725 72.9056L22.02 70.5712L18.4781 70.2937L21.3356 68.2125L17.8368 67.6125L20.88 65.8125L17.4543 64.8862L20.6512 63.3656L17.3193 62.1375Z" fill="#3F3438"/>
<path d="M64.9368 60.945C64.9368 67.6988 59.4881 73.1644 52.7643 73.1644C46.0443 73.1644 40.5956 67.6988 40.5956 60.945C40.5956 54.2025 46.0443 48.7332 52.7643 48.7332C59.4881 48.7332 64.9368 54.2025 64.9368 60.945Z" fill="#FCFCFA"/>
<path d="M63.0356 60.9457C63.0356 65.5882 59.2893 69.3475 54.6637 69.3475C50.0493 69.3475 46.2993 65.5788 46.2993 60.9457C46.2993 56.3069 50.0493 52.5457 54.6637 52.5457C59.2893 52.5457 63.0356 56.3144 63.0356 60.9457Z" fill="#3F3438"/>
<path d="M27.8344 71.1267C33.4367 71.1267 37.9782 66.5684 37.9782 60.9454C37.9782 55.3225 33.4367 50.7642 27.8344 50.7642C22.2322 50.7642 17.6907 55.3225 17.6907 60.9454C17.6907 66.5684 22.2322 71.1267 27.8344 71.1267Z" fill="#FCFCFA"/>
<path d="M29.7337 67.9458C33.5859 67.9458 36.7087 64.8113 36.7087 60.9446C36.7087 57.0779 33.5859 53.9434 29.7337 53.9434C25.8815 53.9434 22.7587 57.0779 22.7587 60.9446C22.7587 64.8113 25.8815 67.9458 29.7337 67.9458Z" fill="#3F3438"/>
<path d="M68.1 31.71C57.8287 31.4363 51.6993 35.2613 48.8043 42.9788C48.39 44.0813 50.1281 44.5406 50.6456 43.4869C53.0362 38.6344 57.1612 33.0488 68.0962 33.6394C68.0962 33.6394 68.0981 33.6394 68.1 33.6394C69.2906 33.6394 69.2906 31.7175 68.1 31.7175" fill="#3F3438"/>
<path d="M33.4537 46.1536C26.3887 38.7943 19.3106 37.2268 11.7375 40.6543C10.6537 41.1455 11.5556 42.683 12.6731 42.3024C17.8443 40.538 24.7631 39.4636 32.0718 47.5111C32.0718 47.5111 32.0737 47.5111 32.0756 47.5111C32.9193 48.3436 34.2956 46.9861 33.4537 46.1536Z" fill="#3F3438"/>
</svg>
